%TF.GenerationSoftware,KiCad,Pcbnew,(5.1.5-0-10_14)*%
%TF.CreationDate,2021-01-27T10:41:07-07:00*%
%TF.ProjectId,NFCPower10,4e464350-6f77-4657-9231-302e6b696361,2*%
%TF.SameCoordinates,Original*%
%TF.FileFunction,Soldermask,Bot*%
%TF.FilePolarity,Negative*%
%FSLAX46Y46*%
G04 Gerber Fmt 4.6, Leading zero omitted, Abs format (unit mm)*
G04 Created by KiCad (PCBNEW (5.1.5-0-10_14)) date 2021-01-27 10:41:07*
%MOMM*%
%LPD*%
G04 APERTURE LIST*
%ADD10R,1.924000X1.924000*%
%ADD11C,1.500000*%
%ADD12R,1.500000X1.500000*%
%ADD13C,1.670000*%
%ADD14R,0.700000X0.650000*%
%ADD15R,1.800000X1.800000*%
%ADD16O,1.800000X1.800000*%
%ADD17R,0.900000X0.900000*%
%ADD18C,3.300000*%
%ADD19C,1.649999*%
%ADD20R,1.649999X1.649999*%
%ADD21O,2.350000X4.600000*%
%ADD22O,4.600000X2.350000*%
%ADD23O,5.100000X2.600000*%
%ADD24C,0.100000*%
G04 APERTURE END LIST*
D10*
%TO.C,Y31*%
X93000000Y-138500000D03*
X90000000Y-138500000D03*
%TD*%
%TO.C,Y28*%
X118000000Y-138500000D03*
X115000000Y-138500000D03*
%TD*%
%TO.C,Y25*%
X143000000Y-138500000D03*
X140000000Y-138500000D03*
%TD*%
%TO.C,Y22*%
X168000000Y-138500000D03*
X165000000Y-138500000D03*
%TD*%
%TO.C,Y19*%
X193000000Y-138500000D03*
X190000000Y-138500000D03*
%TD*%
%TO.C,Y16*%
X218000000Y-138500000D03*
X215000000Y-138500000D03*
%TD*%
%TO.C,Y13*%
X243000000Y-138500000D03*
X240000000Y-138500000D03*
%TD*%
%TO.C,Y10*%
X268000000Y-138500000D03*
X265000000Y-138500000D03*
%TD*%
%TO.C,Y7*%
X293000000Y-138500000D03*
X290000000Y-138500000D03*
%TD*%
%TO.C,Y5*%
X318000000Y-138500000D03*
X315000000Y-138500000D03*
%TD*%
D11*
%TO.C,J11*%
X308580000Y-141000000D03*
X306040000Y-141000000D03*
D12*
X303500000Y-141000000D03*
D11*
X311120000Y-141000000D03*
%TD*%
D13*
%TO.C,Y30*%
X109890000Y-136500000D03*
X101000000Y-128880000D03*
%TD*%
%TO.C,Y27*%
X134890000Y-136500000D03*
X126000000Y-128880000D03*
%TD*%
%TO.C,Y24*%
X159890000Y-136500000D03*
X151000000Y-128880000D03*
%TD*%
%TO.C,Y21*%
X184890000Y-136500000D03*
X176000000Y-128880000D03*
%TD*%
%TO.C,Y18*%
X209890000Y-136500000D03*
X201000000Y-128880000D03*
%TD*%
%TO.C,Y15*%
X234890000Y-136500000D03*
X226000000Y-128880000D03*
%TD*%
%TO.C,Y12*%
X259890000Y-136500000D03*
X251000000Y-128880000D03*
%TD*%
%TO.C,Y9*%
X284890000Y-136500000D03*
X276000000Y-128880000D03*
%TD*%
%TO.C,Y6*%
X309890000Y-136500000D03*
X301000000Y-128880000D03*
%TD*%
D14*
%TO.C,UED2*%
X87500000Y-86125000D03*
X87500000Y-86875000D03*
X87500000Y-87625000D03*
X87500000Y-88375000D03*
X87500000Y-89125000D03*
X87500000Y-89875000D03*
X89500000Y-89875000D03*
X89500000Y-89125000D03*
X89500000Y-88375000D03*
X89500000Y-87625000D03*
X89500000Y-86875000D03*
X89500000Y-86125000D03*
%TD*%
%TO.C,UED1*%
X337500000Y-86125000D03*
X337500000Y-86875000D03*
X337500000Y-87625000D03*
X337500000Y-88375000D03*
X337500000Y-89125000D03*
X337500000Y-89875000D03*
X339500000Y-89875000D03*
X339500000Y-89125000D03*
X339500000Y-88375000D03*
X339500000Y-87625000D03*
X339500000Y-86875000D03*
X339500000Y-86125000D03*
%TD*%
D11*
%TO.C,J39*%
X101500000Y-193080000D03*
X101500000Y-190540000D03*
D12*
X101500000Y-188000000D03*
D11*
X101500000Y-195620000D03*
%TD*%
%TO.C,J38*%
X95500000Y-193080000D03*
X95500000Y-190540000D03*
D12*
X95500000Y-188000000D03*
D11*
X95500000Y-195620000D03*
%TD*%
D15*
%TO.C,J37*%
X107500000Y-188000000D03*
D16*
X110040000Y-188000000D03*
X107500000Y-190540000D03*
X110040000Y-190540000D03*
X107500000Y-193080000D03*
X110040000Y-193080000D03*
%TD*%
D12*
%TO.C,J36*%
X101000000Y-96000000D03*
D11*
X101000000Y-98540000D03*
%TD*%
%TO.C,J35*%
X108580000Y-141000000D03*
X106040000Y-141000000D03*
D12*
X103500000Y-141000000D03*
D11*
X111120000Y-141000000D03*
%TD*%
D15*
%TO.C,J34*%
X108500000Y-172420000D03*
D16*
X111040000Y-172420000D03*
X108500000Y-174960000D03*
X111040000Y-174960000D03*
X108500000Y-177500000D03*
X111040000Y-177500000D03*
%TD*%
D12*
%TO.C,J33*%
X126000000Y-96000000D03*
D11*
X126000000Y-98540000D03*
%TD*%
%TO.C,J32*%
X133580000Y-141000000D03*
X131040000Y-141000000D03*
D12*
X128500000Y-141000000D03*
D11*
X136120000Y-141000000D03*
%TD*%
D15*
%TO.C,J31*%
X133500000Y-172420000D03*
D16*
X136040000Y-172420000D03*
X133500000Y-174960000D03*
X136040000Y-174960000D03*
X133500000Y-177500000D03*
X136040000Y-177500000D03*
%TD*%
D12*
%TO.C,J30*%
X151000000Y-96000000D03*
D11*
X151000000Y-98540000D03*
%TD*%
%TO.C,J29*%
X158580000Y-141000000D03*
X156040000Y-141000000D03*
D12*
X153500000Y-141000000D03*
D11*
X161120000Y-141000000D03*
%TD*%
D15*
%TO.C,J28*%
X158500000Y-172420000D03*
D16*
X161040000Y-172420000D03*
X158500000Y-174960000D03*
X161040000Y-174960000D03*
X158500000Y-177500000D03*
X161040000Y-177500000D03*
%TD*%
D12*
%TO.C,J27*%
X176000000Y-96000000D03*
D11*
X176000000Y-98540000D03*
%TD*%
%TO.C,J26*%
X183580000Y-141000000D03*
X181040000Y-141000000D03*
D12*
X178500000Y-141000000D03*
D11*
X186120000Y-141000000D03*
%TD*%
D15*
%TO.C,J25*%
X183500000Y-172420000D03*
D16*
X186040000Y-172420000D03*
X183500000Y-174960000D03*
X186040000Y-174960000D03*
X183500000Y-177500000D03*
X186040000Y-177500000D03*
%TD*%
D12*
%TO.C,J24*%
X201000000Y-96000000D03*
D11*
X201000000Y-98540000D03*
%TD*%
%TO.C,J23*%
X208580000Y-141000000D03*
X206040000Y-141000000D03*
D12*
X203500000Y-141000000D03*
D11*
X211120000Y-141000000D03*
%TD*%
D15*
%TO.C,J22*%
X208500000Y-172420000D03*
D16*
X211040000Y-172420000D03*
X208500000Y-174960000D03*
X211040000Y-174960000D03*
X208500000Y-177500000D03*
X211040000Y-177500000D03*
%TD*%
D12*
%TO.C,J21*%
X226000000Y-96000000D03*
D11*
X226000000Y-98540000D03*
%TD*%
%TO.C,J20*%
X233580000Y-141000000D03*
X231040000Y-141000000D03*
D12*
X228500000Y-141000000D03*
D11*
X236120000Y-141000000D03*
%TD*%
D15*
%TO.C,J19*%
X233500000Y-172420000D03*
D16*
X236040000Y-172420000D03*
X233500000Y-174960000D03*
X236040000Y-174960000D03*
X233500000Y-177500000D03*
X236040000Y-177500000D03*
%TD*%
D12*
%TO.C,J18*%
X251000000Y-96000000D03*
D11*
X251000000Y-98540000D03*
%TD*%
%TO.C,J17*%
X258580000Y-141000000D03*
X256040000Y-141000000D03*
D12*
X253500000Y-141000000D03*
D11*
X261120000Y-141000000D03*
%TD*%
D15*
%TO.C,J16*%
X258500000Y-172420000D03*
D16*
X261040000Y-172420000D03*
X258500000Y-174960000D03*
X261040000Y-174960000D03*
X258500000Y-177500000D03*
X261040000Y-177500000D03*
%TD*%
D12*
%TO.C,J15*%
X276000000Y-96000000D03*
D11*
X276000000Y-98540000D03*
%TD*%
%TO.C,J14*%
X283580000Y-141000000D03*
X281040000Y-141000000D03*
D12*
X278500000Y-141000000D03*
D11*
X286120000Y-141000000D03*
%TD*%
D15*
%TO.C,J13*%
X283500000Y-172420000D03*
D16*
X286040000Y-172420000D03*
X283500000Y-174960000D03*
X286040000Y-174960000D03*
X283500000Y-177500000D03*
X286040000Y-177500000D03*
%TD*%
D12*
%TO.C,J12*%
X301000000Y-96000000D03*
D11*
X301000000Y-98540000D03*
%TD*%
D15*
%TO.C,J10*%
X308500000Y-172420000D03*
D16*
X311040000Y-172420000D03*
X308500000Y-174960000D03*
X311040000Y-174960000D03*
X308500000Y-177500000D03*
X311040000Y-177500000D03*
%TD*%
D11*
%TO.C,J9*%
X89500000Y-193080000D03*
X89500000Y-190540000D03*
D12*
X89500000Y-188000000D03*
D11*
X89500000Y-195620000D03*
%TD*%
%TO.C,J7*%
X333580000Y-141000000D03*
X331040000Y-141000000D03*
D12*
X328500000Y-141000000D03*
D11*
X336120000Y-141000000D03*
%TD*%
D17*
%TO.C,D78*%
X87750000Y-85000000D03*
X89250000Y-85000000D03*
%TD*%
%TO.C,D77*%
X337750000Y-85000000D03*
X339250000Y-85000000D03*
%TD*%
D18*
%TO.C,MT3*%
X343500000Y-200000000D03*
%TD*%
%TO.C,MT4*%
X343500000Y-100000000D03*
%TD*%
%TO.C,MT2*%
X83500000Y-100000000D03*
%TD*%
%TO.C,MT1*%
X83500000Y-200000000D03*
%TD*%
D13*
%TO.C,Y4*%
X334890000Y-136500000D03*
X326000000Y-128880000D03*
%TD*%
D12*
%TO.C,J8*%
X326000000Y-96000000D03*
D11*
X326000000Y-98540000D03*
%TD*%
D19*
%TO.C,J5*%
X157500000Y-185800000D03*
X157500000Y-188340000D03*
X157500000Y-190880000D03*
X157500000Y-193420000D03*
X157500000Y-195960000D03*
D20*
X157500000Y-198500000D03*
%TD*%
D11*
%TO.C,J4*%
X263500000Y-190920000D03*
X263500000Y-193460000D03*
D12*
X263500000Y-196000000D03*
D11*
X263500000Y-188380000D03*
%TD*%
D21*
%TO.C,J1*%
X218200000Y-194000000D03*
D22*
X213500000Y-197000000D03*
D23*
X213500000Y-191000000D03*
%TD*%
D15*
%TO.C,J3*%
X178500000Y-199500000D03*
D16*
X178500000Y-202040000D03*
X175960000Y-199500000D03*
X175960000Y-202040000D03*
X173420000Y-199500000D03*
X173420000Y-202040000D03*
%TD*%
D15*
%TO.C,J6*%
X333500000Y-172420000D03*
D16*
X336040000Y-172420000D03*
X333500000Y-174960000D03*
X336040000Y-174960000D03*
X333500000Y-177500000D03*
X336040000Y-177500000D03*
%TD*%
D24*
%TO.C,J2*%
G36*
X198409755Y-201150961D02*
G01*
X198419134Y-201153806D01*
X198427779Y-201158427D01*
X198435355Y-201164645D01*
X198441573Y-201172221D01*
X198446194Y-201180866D01*
X198449039Y-201190245D01*
X198450000Y-201200000D01*
X198450000Y-203100000D01*
X198449039Y-203109755D01*
X198446194Y-203119134D01*
X198441573Y-203127779D01*
X198435355Y-203135355D01*
X198427779Y-203141573D01*
X198419134Y-203146194D01*
X198409755Y-203149039D01*
X198400000Y-203150000D01*
X196925000Y-203150000D01*
X196923037Y-203149961D01*
X196875962Y-203148111D01*
X196872049Y-203147803D01*
X196825263Y-203142266D01*
X196821384Y-203141652D01*
X196775178Y-203132461D01*
X196771361Y-203131545D01*
X196726018Y-203118757D01*
X196722284Y-203117544D01*
X196678084Y-203101238D01*
X196674457Y-203099735D01*
X196631673Y-203080011D01*
X196628175Y-203078229D01*
X196587070Y-203055209D01*
X196583722Y-203053157D01*
X196544550Y-203026983D01*
X196541375Y-203024676D01*
X196504377Y-202995510D01*
X196501391Y-202992960D01*
X196466796Y-202960980D01*
X196464020Y-202958204D01*
X196432040Y-202923609D01*
X196429490Y-202920623D01*
X196400324Y-202883625D01*
X196398017Y-202880450D01*
X196371843Y-202841278D01*
X196369791Y-202837930D01*
X196346771Y-202796825D01*
X196344989Y-202793327D01*
X196325265Y-202750543D01*
X196323762Y-202746916D01*
X196307456Y-202702716D01*
X196306243Y-202698982D01*
X196293455Y-202653639D01*
X196292539Y-202649822D01*
X196283348Y-202603616D01*
X196282734Y-202599737D01*
X196277197Y-202552951D01*
X196276889Y-202549038D01*
X196275039Y-202501963D01*
X196275000Y-202500000D01*
X196275000Y-201800000D01*
X196275039Y-201798037D01*
X196276889Y-201750962D01*
X196277197Y-201747049D01*
X196282734Y-201700263D01*
X196283348Y-201696384D01*
X196292539Y-201650178D01*
X196293455Y-201646361D01*
X196306243Y-201601018D01*
X196307456Y-201597284D01*
X196323762Y-201553084D01*
X196325265Y-201549457D01*
X196344989Y-201506673D01*
X196346771Y-201503175D01*
X196369791Y-201462070D01*
X196371843Y-201458722D01*
X196398017Y-201419550D01*
X196400324Y-201416375D01*
X196429490Y-201379377D01*
X196432040Y-201376391D01*
X196464020Y-201341796D01*
X196466796Y-201339020D01*
X196501391Y-201307040D01*
X196504377Y-201304490D01*
X196541375Y-201275324D01*
X196544550Y-201273017D01*
X196583722Y-201246843D01*
X196587070Y-201244791D01*
X196628175Y-201221771D01*
X196631673Y-201219989D01*
X196674457Y-201200265D01*
X196678084Y-201198762D01*
X196722284Y-201182456D01*
X196726018Y-201181243D01*
X196771361Y-201168455D01*
X196775178Y-201167539D01*
X196821384Y-201158348D01*
X196825263Y-201157734D01*
X196872049Y-201152197D01*
X196875962Y-201151889D01*
X196923037Y-201150039D01*
X196925000Y-201150000D01*
X198400000Y-201150000D01*
X198409755Y-201150961D01*
G37*
G36*
X205076963Y-201150039D02*
G01*
X205124038Y-201151889D01*
X205127951Y-201152197D01*
X205174737Y-201157734D01*
X205178616Y-201158348D01*
X205224822Y-201167539D01*
X205228639Y-201168455D01*
X205273982Y-201181243D01*
X205277716Y-201182456D01*
X205321916Y-201198762D01*
X205325543Y-201200265D01*
X205368327Y-201219989D01*
X205371825Y-201221771D01*
X205412930Y-201244791D01*
X205416278Y-201246843D01*
X205455450Y-201273017D01*
X205458625Y-201275324D01*
X205495623Y-201304490D01*
X205498609Y-201307040D01*
X205533204Y-201339020D01*
X205535980Y-201341796D01*
X205567960Y-201376391D01*
X205570510Y-201379377D01*
X205599676Y-201416375D01*
X205601983Y-201419550D01*
X205628157Y-201458722D01*
X205630209Y-201462070D01*
X205653229Y-201503175D01*
X205655011Y-201506673D01*
X205674735Y-201549457D01*
X205676238Y-201553084D01*
X205692544Y-201597284D01*
X205693757Y-201601018D01*
X205706545Y-201646361D01*
X205707461Y-201650178D01*
X205716652Y-201696384D01*
X205717266Y-201700263D01*
X205722803Y-201747049D01*
X205723111Y-201750962D01*
X205724961Y-201798037D01*
X205725000Y-201800000D01*
X205725000Y-202500000D01*
X205724961Y-202501963D01*
X205723111Y-202549038D01*
X205722803Y-202552951D01*
X205717266Y-202599737D01*
X205716652Y-202603616D01*
X205707461Y-202649822D01*
X205706545Y-202653639D01*
X205693757Y-202698982D01*
X205692544Y-202702716D01*
X205676238Y-202746916D01*
X205674735Y-202750543D01*
X205655011Y-202793327D01*
X205653229Y-202796825D01*
X205630209Y-202837930D01*
X205628157Y-202841278D01*
X205601983Y-202880450D01*
X205599676Y-202883625D01*
X205570510Y-202920623D01*
X205567960Y-202923609D01*
X205535980Y-202958204D01*
X205533204Y-202960980D01*
X205498609Y-202992960D01*
X205495623Y-202995510D01*
X205458625Y-203024676D01*
X205455450Y-203026983D01*
X205416278Y-203053157D01*
X205412930Y-203055209D01*
X205371825Y-203078229D01*
X205368327Y-203080011D01*
X205325543Y-203099735D01*
X205321916Y-203101238D01*
X205277716Y-203117544D01*
X205273982Y-203118757D01*
X205228639Y-203131545D01*
X205224822Y-203132461D01*
X205178616Y-203141652D01*
X205174737Y-203142266D01*
X205127951Y-203147803D01*
X205124038Y-203148111D01*
X205076963Y-203149961D01*
X205075000Y-203150000D01*
X203600000Y-203150000D01*
X203590245Y-203149039D01*
X203580866Y-203146194D01*
X203572221Y-203141573D01*
X203564645Y-203135355D01*
X203558427Y-203127779D01*
X203553806Y-203119134D01*
X203550961Y-203109755D01*
X203550000Y-203100000D01*
X203550000Y-201200000D01*
X203550961Y-201190245D01*
X203553806Y-201180866D01*
X203558427Y-201172221D01*
X203564645Y-201164645D01*
X203572221Y-201158427D01*
X203580866Y-201153806D01*
X203590245Y-201150961D01*
X203600000Y-201150000D01*
X205075000Y-201150000D01*
X205076963Y-201150039D01*
G37*
%TD*%
M02*
