M48
; DRILL file {KiCad (5.1.6)-1} date 11/27/20 14:01:50
; FORMAT={-:-/ absolute / metric / decimal}
; #@! TF.CreationDate,2020-11-27T14:01:50-07:00
; #@! TF.GenerationSoftware,Kicad,Pcbnew,(5.1.6)-1
; #@! TF.FileFunction,Plated,1,2,PTH
FMAT,2
METRIC
T1C0.400
T2C0.600
T3C0.850
T4C0.860
T5C1.000
T6C1.040
T7C1.300
%
G90
G05
T1
X89.31Y-141.07
X90.895Y-161.93
X91.26Y-157.047
X91.298Y-160.35
X91.53Y-154.91
X91.97Y-170.75
X92.24Y-163.05
X92.25Y-158.99
X92.72Y-138.5
X93.44Y-172.29
X94.69Y-154.0
X94.78Y-161.93
X95.05Y-164.4
X95.37Y-160.35
X95.45Y-171.94
X95.46Y-174.87
X95.465Y-177.705
X95.87Y-163.14
X96.25Y-141.53
X97.06Y-152.9
X97.647Y-168.813
X98.41Y-146.9
X99.12Y-158.92
X99.17Y-160.38
X99.21Y-157.05
X99.47Y-145.64
X99.61Y-141.51
X100.0Y-149.0
X100.01Y-151.0
X100.75Y-143.51
X101.0Y-164.5
X101.12Y-140.07
X102.0Y-149.05
X102.0Y-151.0
X102.661Y-146.409
X102.767Y-158.928
X102.94Y-154.88
X103.75Y-143.5
X104.475Y-147.01
X104.53Y-172.37
X105.13Y-167.61
X105.25Y-143.52
X105.25Y-158.9
X106.01Y-152.93
X106.14Y-163.18
X106.14Y-164.9
X106.49Y-148.49
X106.85Y-159.53
X109.25Y-152.47
X109.25Y-164.53
X111.797Y-157.04
X111.797Y-161.93
X111.82Y-160.39
X111.84Y-148.5
X112.35Y-154.88
X113.23Y-179.07
X113.23Y-182.33
X114.31Y-141.07
X115.895Y-161.93
X116.26Y-157.047
X116.298Y-160.35
X116.53Y-154.91
X116.97Y-170.75
X117.24Y-163.05
X117.25Y-158.99
X117.72Y-138.5
X118.44Y-172.29
X119.69Y-154.0
X119.78Y-161.93
X120.05Y-164.4
X120.37Y-160.35
X120.45Y-171.94
X120.46Y-174.87
X120.465Y-177.705
X120.87Y-163.14
X121.25Y-141.53
X122.06Y-152.9
X122.647Y-168.813
X123.41Y-146.9
X124.12Y-158.92
X124.17Y-160.38
X124.21Y-157.05
X124.47Y-145.64
X124.61Y-141.51
X125.0Y-149.0
X125.01Y-151.0
X125.75Y-143.51
X126.0Y-164.5
X126.12Y-140.07
X127.0Y-149.05
X127.0Y-151.0
X127.661Y-146.409
X127.767Y-158.928
X127.94Y-154.88
X128.75Y-143.5
X129.475Y-147.01
X129.53Y-172.37
X130.13Y-167.61
X130.25Y-143.52
X130.25Y-158.9
X131.01Y-152.93
X131.14Y-163.18
X131.14Y-164.9
X131.49Y-148.49
X131.85Y-159.53
X134.25Y-152.47
X134.25Y-164.53
X136.797Y-157.04
X136.797Y-161.93
X136.82Y-160.39
X136.84Y-148.5
X137.35Y-154.88
X138.11Y-178.95
X138.11Y-182.53
X139.31Y-141.07
X140.895Y-161.93
X141.26Y-157.047
X141.298Y-160.35
X141.53Y-154.91
X141.97Y-170.75
X142.24Y-163.05
X142.25Y-158.99
X142.72Y-138.5
X143.44Y-172.29
X144.69Y-154.0
X144.78Y-161.93
X145.05Y-164.4
X145.37Y-160.35
X145.45Y-171.94
X145.46Y-174.87
X145.465Y-177.705
X145.87Y-163.14
X146.25Y-141.53
X147.06Y-152.9
X147.647Y-168.813
X148.41Y-146.9
X149.12Y-158.92
X149.17Y-160.38
X149.21Y-157.05
X149.47Y-145.64
X149.61Y-141.51
X150.0Y-149.0
X150.01Y-151.0
X150.75Y-143.51
X151.0Y-164.5
X151.12Y-140.07
X152.0Y-149.05
X152.0Y-151.0
X152.661Y-146.409
X152.767Y-158.928
X152.94Y-154.88
X153.75Y-143.5
X154.475Y-147.01
X154.53Y-172.37
X155.13Y-167.61
X155.25Y-143.52
X155.25Y-158.9
X156.01Y-152.93
X156.14Y-163.18
X156.14Y-164.9
X156.49Y-148.49
X156.85Y-159.53
X159.25Y-152.47
X159.25Y-164.53
X161.66Y-183.65
X161.797Y-157.04
X161.797Y-161.93
X161.82Y-160.39
X161.84Y-148.5
X162.21Y-180.67
X162.23Y-195.96
X162.35Y-154.88
X162.66Y-200.95
X164.31Y-141.07
X165.895Y-161.93
X166.26Y-157.047
X166.298Y-160.35
X166.53Y-154.91
X166.97Y-170.75
X167.24Y-163.05
X167.25Y-158.99
X167.72Y-138.5
X168.44Y-172.29
X169.55Y-188.63
X169.69Y-154.0
X169.78Y-161.93
X170.05Y-164.4
X170.35Y-195.57
X170.37Y-160.35
X170.45Y-171.94
X170.46Y-174.87
X170.465Y-177.705
X170.87Y-163.14
X171.25Y-141.53
X171.39Y-197.75
X171.77Y-191.04
X172.06Y-152.9
X172.647Y-168.813
X172.84Y-187.32
X173.41Y-146.9
X174.01Y-185.0
X174.12Y-158.92
X174.17Y-160.38
X174.21Y-157.05
X174.47Y-145.64
X174.61Y-141.51
X175.0Y-149.0
X175.01Y-151.0
X175.75Y-143.51
X176.0Y-164.5
X176.0Y-188.63
X176.0Y-192.51
X176.12Y-140.07
X176.17Y-186.17
X177.0Y-149.05
X177.0Y-151.0
X177.661Y-146.409
X177.767Y-158.928
X177.94Y-154.88
X178.75Y-143.5
X178.89Y-184.73
X179.27Y-186.1
X179.475Y-147.01
X179.53Y-172.37
X179.71Y-188.847
X179.91Y-196.35
X180.13Y-167.61
X180.25Y-143.52
X180.25Y-158.9
X180.86Y-190.03
X181.01Y-152.93
X181.14Y-163.18
X181.14Y-164.9
X181.49Y-148.49
X181.85Y-159.53
X182.0Y-202.01
X182.45Y-187.31
X184.25Y-152.47
X184.25Y-164.53
X184.44Y-193.96
X184.47Y-195.48
X184.67Y-187.13
X184.98Y-179.118
X184.98Y-182.32
X185.41Y-190.03
X186.26Y-198.55
X186.797Y-157.04
X186.797Y-161.93
X186.82Y-160.39
X186.84Y-148.5
X187.35Y-154.88
X187.92Y-188.83
X188.23Y-179.118
X188.23Y-182.25
X189.31Y-141.07
X190.895Y-161.93
X191.26Y-157.047
X191.298Y-160.35
X191.53Y-154.91
X191.97Y-170.75
X192.13Y-193.95
X192.14Y-195.51
X192.24Y-163.05
X192.25Y-158.99
X192.27Y-191.05
X192.72Y-138.5
X193.44Y-172.29
X194.69Y-154.0
X194.78Y-161.93
X194.78Y-202.01
X194.9Y-185.68
X195.05Y-164.4
X195.37Y-160.35
X195.45Y-171.94
X195.46Y-174.87
X195.465Y-177.705
X195.87Y-163.14
X196.25Y-141.53
X197.06Y-152.9
X197.47Y-192.35
X197.58Y-193.97
X197.59Y-195.5
X197.647Y-168.813
X198.41Y-146.9
X199.12Y-158.92
X199.17Y-160.38
X199.21Y-157.05
X199.47Y-145.64
X199.61Y-141.51
X200.0Y-149.0
X200.01Y-151.0
X200.25Y-196.68
X200.275Y-197.76
X200.75Y-143.51
X200.99Y-192.5
X201.0Y-164.5
X201.12Y-140.07
X201.725Y-197.76
X202.0Y-149.05
X202.0Y-151.0
X202.661Y-146.409
X202.767Y-158.928
X202.94Y-154.88
X203.23Y-185.68
X203.75Y-143.5
X203.84Y-197.74
X204.475Y-147.01
X204.53Y-172.37
X205.13Y-167.61
X205.25Y-143.52
X205.25Y-158.9
X205.78Y-197.54
X206.01Y-152.93
X206.14Y-163.18
X206.14Y-164.9
X206.49Y-148.49
X206.85Y-159.53
X207.86Y-195.5
X209.25Y-152.47
X209.25Y-164.53
X209.44Y-183.99
X209.76Y-193.97
X209.76Y-192.42
X210.62Y-183.59
X211.797Y-157.04
X211.797Y-161.93
X211.82Y-160.39
X211.84Y-148.5
X212.35Y-154.88
X214.293Y-185.417
X214.31Y-141.07
X214.644Y-186.726
X214.98Y-188.04
X215.895Y-161.93
X216.26Y-157.047
X216.298Y-160.35
X216.53Y-154.91
X216.97Y-170.75
X217.24Y-163.05
X217.25Y-158.99
X217.32Y-183.66
X217.72Y-138.5
X218.17Y-186.76
X218.22Y-185.47
X218.28Y-199.49
X218.44Y-172.29
X219.13Y-184.297
X219.13Y-187.15
X219.69Y-154.0
X219.74Y-191.16
X219.78Y-161.93
X220.05Y-164.4
X220.37Y-160.35
X220.39Y-197.92
X220.45Y-171.94
X220.46Y-174.87
X220.465Y-177.705
X220.87Y-163.14
X221.13Y-191.68
X221.25Y-141.53
X222.06Y-152.9
X222.647Y-168.813
X223.41Y-146.9
X223.9Y-200.8
X224.12Y-158.92
X224.17Y-160.38
X224.21Y-157.05
X224.47Y-145.64
X224.61Y-141.51
X224.61Y-182.74
X224.61Y-189.95
X225.0Y-149.0
X225.01Y-151.0
X225.75Y-143.51
X226.0Y-164.5
X226.12Y-140.07
X226.82Y-191.34
X227.0Y-149.05
X227.0Y-151.0
X227.661Y-146.409
X227.767Y-158.928
X227.82Y-198.79
X227.94Y-154.88
X228.51Y-192.5
X228.75Y-143.5
X229.475Y-147.01
X229.53Y-172.37
X229.83Y-200.798
X229.87Y-202.677
X230.13Y-167.61
X230.25Y-143.52
X230.25Y-158.9
X231.01Y-152.93
X231.14Y-163.18
X231.14Y-164.9
X231.49Y-148.49
X231.85Y-159.53
X234.25Y-152.47
X234.25Y-164.53
X234.69Y-179.128
X234.7Y-187.55
X235.17Y-197.0
X236.797Y-157.04
X236.797Y-161.93
X236.82Y-160.39
X236.84Y-148.5
X237.35Y-154.88
X238.2Y-179.128
X238.2Y-182.95
X239.31Y-141.07
X240.895Y-161.93
X241.26Y-157.047
X241.298Y-160.35
X241.53Y-154.91
X241.94Y-200.12
X241.97Y-170.75
X242.24Y-163.05
X242.25Y-158.99
X242.72Y-138.5
X243.43Y-200.798
X243.44Y-172.29
X243.62Y-189.5
X244.69Y-154.0
X244.78Y-161.93
X245.05Y-164.4
X245.37Y-160.35
X245.45Y-171.94
X245.46Y-174.87
X245.465Y-177.705
X245.87Y-163.14
X246.22Y-199.7
X246.23Y-198.13
X246.25Y-141.53
X246.439Y-201.146
X246.81Y-194.11
X247.06Y-152.9
X247.46Y-202.85
X247.647Y-168.813
X248.41Y-146.9
X248.68Y-197.81
X249.05Y-187.26
X249.12Y-158.92
X249.17Y-160.38
X249.21Y-157.05
X249.26Y-203.19
X249.47Y-145.64
X249.49Y-199.773
X249.61Y-141.51
X250.0Y-149.0
X250.01Y-151.0
X250.73Y-199.773
X250.75Y-143.51
X251.0Y-164.5
X251.0Y-192.5
X251.12Y-140.07
X252.0Y-149.05
X252.0Y-151.0
X252.63Y-186.69
X252.661Y-146.409
X252.767Y-158.928
X252.88Y-185.0
X252.9Y-197.75
X252.94Y-154.88
X253.09Y-189.86
X253.09Y-188.04
X253.75Y-143.5
X254.213Y-192.823
X254.44Y-195.61
X254.475Y-147.01
X254.53Y-172.37
X254.97Y-201.47
X255.13Y-167.61
X255.25Y-143.52
X255.25Y-158.9
X255.38Y-200.47
X255.67Y-192.83
X256.0Y-195.22
X256.01Y-152.93
X256.14Y-163.18
X256.14Y-164.9
X256.49Y-148.49
X256.85Y-159.53
X256.95Y-185.45
X257.13Y-194.19
X257.19Y-180.68
X257.66Y-198.83
X258.25Y-188.5
X258.44Y-190.35
X258.895Y-197.915
X259.25Y-152.47
X259.25Y-164.53
X260.245Y-197.325
X261.797Y-157.04
X261.797Y-161.93
X261.82Y-160.39
X261.84Y-148.5
X262.35Y-154.88
X263.19Y-179.138
X263.19Y-183.86
X264.31Y-141.07
X265.895Y-161.93
X266.26Y-157.047
X266.298Y-160.35
X266.53Y-154.91
X266.97Y-170.75
X267.24Y-163.05
X267.25Y-158.99
X267.72Y-138.5
X268.44Y-172.29
X269.69Y-154.0
X269.78Y-161.93
X270.05Y-164.4
X270.37Y-160.35
X270.45Y-171.94
X270.46Y-174.87
X270.465Y-177.705
X270.87Y-163.14
X271.25Y-141.53
X272.06Y-152.9
X272.647Y-168.813
X273.41Y-146.9
X274.12Y-158.92
X274.17Y-160.38
X274.21Y-157.05
X274.47Y-145.64
X274.61Y-141.51
X275.0Y-149.0
X275.01Y-151.0
X275.75Y-143.51
X276.0Y-164.5
X276.12Y-140.07
X277.0Y-149.05
X277.0Y-151.0
X277.661Y-146.409
X277.767Y-158.928
X277.94Y-154.88
X278.75Y-143.5
X279.475Y-147.01
X279.53Y-172.37
X280.13Y-167.61
X280.25Y-143.52
X280.25Y-158.9
X281.01Y-152.93
X281.14Y-163.18
X281.14Y-164.9
X281.49Y-148.49
X281.85Y-159.53
X284.25Y-152.47
X284.25Y-164.53
X286.797Y-157.04
X286.797Y-161.93
X286.82Y-160.39
X286.84Y-148.5
X287.35Y-154.88
X288.095Y-179.138
X288.11Y-183.87
X289.31Y-141.07
X290.895Y-161.93
X291.26Y-157.047
X291.298Y-160.35
X291.53Y-154.91
X291.97Y-170.75
X292.24Y-163.05
X292.25Y-158.99
X292.72Y-138.5
X293.44Y-172.29
X294.69Y-154.0
X294.78Y-161.93
X295.05Y-164.4
X295.37Y-160.35
X295.45Y-171.94
X295.46Y-174.87
X295.465Y-177.705
X295.87Y-163.14
X296.25Y-141.53
X297.06Y-152.9
X297.647Y-168.813
X298.41Y-146.9
X299.12Y-158.92
X299.17Y-160.38
X299.21Y-157.05
X299.47Y-145.64
X299.61Y-141.51
X300.0Y-149.0
X300.01Y-151.0
X300.75Y-143.51
X301.0Y-164.5
X301.12Y-140.07
X302.0Y-149.05
X302.0Y-151.0
X302.661Y-146.409
X302.767Y-158.928
X302.94Y-154.88
X303.75Y-143.5
X304.475Y-147.01
X304.53Y-172.37
X305.13Y-167.61
X305.25Y-143.52
X305.25Y-158.9
X306.01Y-152.93
X306.14Y-163.18
X306.14Y-164.9
X306.49Y-148.49
X306.85Y-159.53
X309.25Y-152.47
X309.25Y-164.53
X311.797Y-157.04
X311.797Y-161.93
X311.82Y-160.39
X311.84Y-148.5
X312.35Y-154.88
X313.095Y-179.138
X313.13Y-183.88
X314.31Y-141.07
X315.895Y-161.93
X316.26Y-157.047
X316.298Y-160.35
X316.53Y-154.91
X316.97Y-170.75
X317.24Y-163.05
X317.25Y-158.99
X317.72Y-138.5
X318.44Y-172.29
X319.69Y-154.0
X319.78Y-161.93
X320.05Y-164.4
X320.37Y-160.35
X320.45Y-171.94
X320.46Y-174.87
X320.465Y-177.705
X320.87Y-163.14
X321.25Y-141.53
X322.06Y-152.9
X322.647Y-168.813
X323.41Y-146.9
X324.12Y-158.92
X324.17Y-160.38
X324.21Y-157.05
X324.47Y-145.64
X324.61Y-141.51
X325.0Y-149.0
X325.01Y-151.0
X325.75Y-143.51
X326.0Y-164.5
X326.12Y-140.07
X327.0Y-149.05
X327.0Y-151.0
X327.661Y-146.409
X327.767Y-158.928
X327.94Y-154.88
X328.75Y-143.5
X329.475Y-147.01
X329.53Y-172.37
X330.13Y-167.61
X330.25Y-143.52
X330.25Y-158.9
X331.01Y-152.93
X331.14Y-163.18
X331.14Y-164.9
X331.49Y-148.49
X331.85Y-159.53
X334.25Y-152.47
X334.25Y-164.53
X336.797Y-157.04
X336.797Y-161.93
X336.82Y-160.39
X336.84Y-148.5
X337.35Y-154.88
X338.2Y-179.15
X338.23Y-183.88
T2
X101.0Y-128.88
X109.89Y-136.5
X176.0Y-128.88
X184.89Y-136.5
X301.0Y-128.88
X309.89Y-136.5
X226.0Y-128.88
X234.89Y-136.5
X151.0Y-128.88
X159.89Y-136.5
X251.0Y-128.88
X259.89Y-136.5
X201.0Y-128.88
X209.89Y-136.5
X326.0Y-128.88
X334.89Y-136.5
X276.0Y-128.88
X284.89Y-136.5
X126.0Y-128.88
X134.89Y-136.5
T4
X165.5Y-82.0
X168.04Y-82.0
X190.5Y-82.0
X193.04Y-82.0
X308.5Y-141.0
X311.04Y-141.0
X140.5Y-82.0
X143.04Y-82.0
X233.5Y-141.0
X236.04Y-141.0
X315.5Y-82.0
X318.04Y-82.0
X108.5Y-141.0
X111.04Y-141.0
X158.5Y-141.0
X161.04Y-141.0
X215.5Y-82.0
X218.04Y-82.0
X115.5Y-82.0
X118.04Y-82.0
X90.5Y-82.0
X93.04Y-82.0
X258.5Y-141.0
X261.04Y-141.0
X183.5Y-141.0
X186.04Y-141.0
X133.5Y-141.0
X136.04Y-141.0
X333.5Y-141.0
X336.04Y-141.0
X290.5Y-82.0
X293.04Y-82.0
X208.5Y-141.0
X211.04Y-141.0
X283.5Y-141.0
X286.04Y-141.0
X240.5Y-82.0
X243.04Y-82.0
X263.5Y-188.38
X263.5Y-190.92
X263.5Y-193.46
X263.5Y-196.0
X265.5Y-82.0
X268.04Y-82.0
T5
X233.5Y-172.42
X233.5Y-174.96
X233.5Y-177.5
X236.04Y-172.42
X236.04Y-174.96
X236.04Y-177.5
X108.5Y-172.42
X108.5Y-174.96
X108.5Y-177.5
X111.04Y-172.42
X111.04Y-174.96
X111.04Y-177.5
X258.5Y-172.42
X258.5Y-174.96
X258.5Y-177.5
X261.04Y-172.42
X261.04Y-174.96
X261.04Y-177.5
X208.5Y-172.42
X208.5Y-174.96
X208.5Y-177.5
X211.04Y-172.42
X211.04Y-174.96
X211.04Y-177.5
X308.5Y-172.42
X308.5Y-174.96
X308.5Y-177.5
X311.04Y-172.42
X311.04Y-174.96
X311.04Y-177.5
X183.5Y-172.42
X183.5Y-174.96
X183.5Y-177.5
X186.04Y-172.42
X186.04Y-174.96
X186.04Y-177.5
X333.5Y-172.42
X333.5Y-174.96
X333.5Y-177.5
X336.04Y-172.42
X336.04Y-174.96
X336.04Y-177.5
X133.5Y-172.42
X133.5Y-174.96
X133.5Y-177.5
X136.04Y-172.42
X136.04Y-174.96
X136.04Y-177.5
X158.5Y-172.42
X158.5Y-174.96
X158.5Y-177.5
X161.04Y-172.42
X161.04Y-174.96
X161.04Y-177.5
X173.42Y-199.5
X173.42Y-202.04
X175.96Y-199.5
X175.96Y-202.04
X178.5Y-199.5
X178.5Y-202.04
X283.5Y-172.42
X283.5Y-174.96
X283.5Y-177.5
X286.04Y-172.42
X286.04Y-174.96
X286.04Y-177.5
T6
X157.5Y-185.8
X157.5Y-188.34
X157.5Y-190.88
X157.5Y-193.42
X157.5Y-195.96
X157.5Y-198.5
T3
G00X198.775Y-199.15
M15
G01X198.775Y-199.15
M16
G05
G00X203.225Y-199.15
M15
G01X203.225Y-199.15
M16
G05
T5
G00X214.75Y-191.0
M15
G01X212.25Y-191.0
M16
G05
G00X214.5Y-197.0
M15
G01X212.5Y-197.0
M16
G05
G00X218.2Y-193.0
M15
G01X218.2Y-195.0
M16
G05
T7
G00X196.825Y-202.15
M15
G01X196.825Y-202.15
M16
G05
G00X205.175Y-202.15
M15
G01X205.175Y-202.15
M16
G05
T0
M30
