M48
; DRILL file {KiCad (5.1.5-0-10_14)} date Wednesday, January 27, 2021 at 10:41:11 AM
; FORMAT={-:-/ absolute / inch / decimal}
; #@! TF.CreationDate,2021-01-27T10:41:11-07:00
; #@! TF.GenerationSoftware,Kicad,Pcbnew,(5.1.5-0-10_14)
; #@! TF.FileFunction,Plated,1,2,PTH
FMAT,2
INCH
T1C0.0157
T2C0.0236
T3C0.0335
T4C0.0339
T5C0.0394
T6C0.0409
T7C0.0512
%
G90
G05
T1
X3.3806Y-7.2209
X3.3926Y-3.3759
X3.4086Y-3.4319
X3.4086Y-3.6589
X3.4142Y-4.2309
X3.4192Y-3.5089
X3.4226Y-3.8399
X3.4506Y-4.2039
X3.4836Y-4.1719
X3.4946Y-3.3889
X3.5166Y-4.2329
X3.5236Y-5.5512
X3.5266Y-3.3485
X3.5827Y-6.1024
X3.5827Y-6.1811
X3.5827Y-6.3189
X3.5827Y-6.378
X3.5827Y-6.5551
X3.6209Y-6.7224
X3.6319Y-6.2598
X3.6466Y-7.7079
X3.6466Y-7.8309
X3.6504Y-5.4528
X3.6787Y-6.7831
X3.6906Y-7.7079
X3.6906Y-7.8299
X3.7205Y-6.063
X3.7303Y-6.378
X3.7421Y-6.4724
X3.75Y-6.3189
X3.75Y-6.8799
X3.75Y-6.998
X3.7744Y-6.4228
X3.7894Y-5.572
X3.8213Y-6.0197
X3.8786Y-7.4269
X3.8786Y-7.8249
X3.9024Y-6.2567
X3.9043Y-6.3142
X3.9075Y-6.1811
X3.9161Y-5.7339
X3.9217Y-5.5713
X3.937Y-5.8661
X3.937Y-5.9449
X3.9567Y-5.5413
X3.9665Y-5.6496
X3.9764Y-5.9055
X3.9813Y-6.4715
X4.0157Y-5.8661
X4.0157Y-5.9449
X4.0453Y-6.1024
X4.046Y-6.257
X4.0803Y-6.3409
X4.0846Y-5.6496
X4.1154Y-6.7862
X4.139Y-6.5988
X4.1437Y-5.6496
X4.1736Y-6.0209
X4.1787Y-6.4244
X4.1787Y-6.4921
X4.1813Y-6.3429
X4.1925Y-5.8461
X4.2043Y-6.2269
X4.2126Y-6.2795
X4.3012Y-5.689
X4.3012Y-5.9252
X4.311Y-6.6339
X4.4043Y-5.8449
X4.4193Y-6.1811
X4.4193Y-6.25
X4.4193Y-6.3189
X4.4193Y-6.378
X4.4225Y-6.1024
X4.4326Y-7.4149
X4.4386Y-7.2934
X4.4587Y-7.0433
X4.4587Y-7.189
X4.5079Y-5.5512
X4.5669Y-6.1024
X4.5669Y-6.1811
X4.5669Y-6.3189
X4.5669Y-6.378
X4.5669Y-6.5551
X4.5876Y-7.6729
X4.6051Y-6.7224
X4.6161Y-6.2598
X4.6346Y-5.4528
X4.663Y-6.7831
X4.6776Y-7.2934
X4.6796Y-7.4309
X4.6806Y-7.6379
X4.6906Y-7.7559
X4.7047Y-6.063
X4.7146Y-6.378
X4.7264Y-6.4724
X4.7343Y-6.3189
X4.7343Y-6.8799
X4.7343Y-6.998
X4.7406Y-7.7239
X4.7426Y-7.9849
X4.7587Y-6.4228
X4.7736Y-5.572
X4.7832Y-7.3685
X4.8055Y-6.0197
X4.8076Y-7.5282
X4.8306Y-7.9859
X4.8326Y-7.7869
X4.8866Y-6.2567
X4.8886Y-6.3142
X4.8916Y-7.8769
X4.8917Y-6.1811
X4.9004Y-5.7339
X4.9059Y-5.5713
X4.9213Y-5.8661
X4.9213Y-5.9449
X4.9409Y-5.5413
X4.9508Y-5.6496
X4.9606Y-5.9055
X4.9656Y-6.4715
X5.0Y-5.8661
X5.0Y-5.9449
X5.0295Y-6.1024
X5.0302Y-6.257
X5.0645Y-6.3409
X5.0689Y-5.6496
X5.0996Y-6.7862
X5.1116Y-7.5024
X5.1232Y-6.5988
X5.128Y-5.6496
X5.1579Y-6.0209
X5.1606Y-7.4329
X5.163Y-6.4244
X5.163Y-6.4921
X5.1655Y-6.3429
X5.1768Y-5.8461
X5.1885Y-6.2269
X5.1969Y-6.2795
X5.2854Y-5.689
X5.2854Y-5.9252
X5.2953Y-6.6339
X5.3885Y-5.8449
X5.4035Y-6.1811
X5.4035Y-6.25
X5.4035Y-6.3189
X5.4035Y-6.378
X5.4068Y-6.1024
X5.4374Y-7.1862
X5.4409Y-7.0457
X5.4921Y-5.5512
X5.5512Y-6.1024
X5.5512Y-6.1811
X5.5512Y-6.3189
X5.5512Y-6.378
X5.5512Y-6.5551
X5.5894Y-6.7224
X5.6004Y-6.2598
X5.6189Y-5.4528
X5.6472Y-6.7831
X5.6856Y-7.3579
X5.6876Y-7.5739
X5.689Y-6.063
X5.6988Y-6.378
X5.7106Y-6.4724
X5.7185Y-6.3189
X5.7185Y-6.8799
X5.7185Y-6.998
X5.7429Y-6.4228
X5.7579Y-5.572
X5.7886Y-7.5739
X5.7896Y-7.3579
X5.7898Y-6.0197
X5.8709Y-6.2567
X5.8728Y-6.3142
X5.876Y-6.1811
X5.8846Y-5.7339
X5.8902Y-5.5713
X5.9055Y-5.8661
X5.9055Y-5.9449
X5.9252Y-5.5413
X5.935Y-5.6496
X5.9449Y-5.9055
X5.9498Y-6.4715
X5.9536Y-7.9439
X5.9776Y-7.8209
X5.9806Y-7.8709
X5.9843Y-5.8661
X5.9843Y-5.9449
X6.0026Y-7.9435
X6.0138Y-6.1024
X6.0145Y-6.257
X6.0488Y-6.3409
X6.0506Y-7.9099
X6.0531Y-5.6496
X6.0839Y-6.7862
X6.0966Y-7.7149
X6.0966Y-7.8979
X6.1016Y-7.4707
X6.1075Y-6.5988
X6.1122Y-5.6496
X6.1196Y-7.3849
X6.1421Y-6.0209
X6.1472Y-6.4244
X6.1472Y-6.4921
X6.1498Y-6.3429
X6.161Y-5.8461
X6.1728Y-6.2269
X6.1811Y-6.2795
X6.2697Y-5.689
X6.2697Y-5.9252
X6.2795Y-6.6339
X6.3346Y-7.4429
X6.3466Y-7.7149
X6.3728Y-5.8449
X6.3866Y-7.1069
X6.3878Y-6.1811
X6.3878Y-6.25
X6.3878Y-6.3189
X6.3878Y-6.378
X6.391Y-6.1024
X6.4039Y-7.9114
X6.4166Y-7.5459
X6.4396Y-7.2139
X6.4456Y-7.5079
X6.4764Y-5.5512
X6.4866Y-7.4669
X6.4996Y-7.6165
X6.5026Y-7.0299
X6.5266Y-7.3429
X6.5354Y-6.1024
X6.5354Y-6.1811
X6.5354Y-6.3189
X6.5354Y-6.378
X6.5354Y-6.5551
X6.5488Y-7.3767
X6.5736Y-6.7224
X6.5846Y-6.2598
X6.6031Y-5.4528
X6.6046Y-7.3695
X6.6315Y-6.7831
X6.6426Y-7.3469
X6.6732Y-6.063
X6.6806Y-7.4719
X6.6831Y-6.378
X6.6949Y-6.4724
X6.6956Y-7.4269
X6.6986Y-7.8169
X6.7028Y-6.3189
X6.7028Y-6.8799
X6.7028Y-6.998
X6.7236Y-7.4699
X6.7272Y-6.4228
X6.7421Y-5.572
X6.7486Y-7.7799
X6.7646Y-7.3419
X6.774Y-6.0197
X6.7886Y-7.2459
X6.8166Y-7.7799
X6.8247Y-7.4554
X6.8267Y-7.4179
X6.8276Y-7.7114
X6.8551Y-6.2567
X6.8571Y-6.3142
X6.8602Y-6.1811
X6.8626Y-7.3759
X6.8689Y-5.7339
X6.8704Y-7.3303
X6.8744Y-5.5713
X6.8898Y-5.8661
X6.8898Y-5.9449
X6.9081Y-7.7267
X6.9094Y-5.5413
X6.9193Y-5.6496
X6.9291Y-5.9055
X6.9341Y-6.4715
X6.9685Y-5.8661
X6.9685Y-5.9449
X6.9786Y-7.3259
X6.998Y-6.1024
X6.9987Y-6.257
X7.0186Y-7.1839
X7.0246Y-7.3279
X7.033Y-6.3409
X7.0374Y-5.6496
X7.0475Y-7.7534
X7.0681Y-6.7862
X7.0706Y-7.4712
X7.0735Y-7.4148
X7.0917Y-6.5988
X7.0965Y-5.6496
X7.1046Y-7.9059
X7.1125Y-7.4338
X7.1264Y-6.0209
X7.1315Y-6.4244
X7.1315Y-6.4921
X7.134Y-6.3429
X7.1446Y-7.4789
X7.1453Y-5.8461
X7.157Y-6.2269
X7.1654Y-6.2795
X7.1736Y-7.3639
X7.1776Y-7.9529
X7.1946Y-7.7405
X7.2046Y-7.3879
X7.2376Y-7.3369
X7.2539Y-5.689
X7.2539Y-5.9252
X7.2638Y-6.6339
X7.2696Y-7.6859
X7.2806Y-7.3579
X7.3356Y-7.6699
X7.3516Y-7.8679
X7.357Y-5.8449
X7.372Y-6.1811
X7.372Y-6.25
X7.372Y-6.3189
X7.372Y-6.378
X7.3753Y-6.1024
X7.3906Y-7.4459
X7.3926Y-7.1809
X7.3946Y-7.5139
X7.4206Y-7.4779
X7.4236Y-7.0309
X7.4486Y-7.8689
X7.4606Y-5.5512
X7.4648Y-7.654
X7.4648Y-7.6917
X7.4652Y-7.6159
X7.4656Y-7.5359
X7.4656Y-7.5749
X7.5197Y-6.1024
X7.5197Y-6.1811
X7.5197Y-6.3189
X7.5197Y-6.378
X7.5197Y-6.5551
X7.5579Y-6.7224
X7.5689Y-6.2598
X7.5874Y-5.4528
X7.6157Y-6.7831
X7.6575Y-6.063
X7.6586Y-7.9519
X7.6673Y-6.378
X7.6791Y-6.4724
X7.687Y-6.3189
X7.687Y-6.8799
X7.687Y-6.998
X7.7056Y-7.6419
X7.7114Y-6.4228
X7.7116Y-7.8669
X7.7264Y-5.572
X7.7286Y-7.4187
X7.7366Y-7.6049
X7.7539Y-7.6765
X7.7583Y-6.0197
X7.7626Y-7.8509
X7.7656Y-7.5739
X7.7953Y-7.3094
X7.8016Y-7.4439
X7.8046Y-7.6925
X7.8394Y-6.2567
X7.8413Y-6.3142
X7.8445Y-6.1811
X7.8499Y-7.7459
X7.8506Y-7.7084
X7.8531Y-5.7339
X7.8587Y-5.5713
X7.874Y-5.8661
X7.874Y-5.9449
X7.8848Y-7.7858
X7.8895Y-7.7466
X7.8937Y-5.5413
X7.9035Y-5.6496
X7.9134Y-5.9055
X7.9136Y-7.5789
X7.9183Y-6.4715
X7.9419Y-7.7858
X7.9528Y-5.8661
X7.9528Y-5.9449
X7.9823Y-6.1024
X7.983Y-6.257
X8.0173Y-6.3409
X8.0216Y-7.7749
X8.0217Y-5.6496
X8.0524Y-6.7862
X8.0658Y-7.7434
X8.0746Y-7.8569
X8.076Y-6.5988
X8.0807Y-5.6496
X8.1106Y-6.0209
X8.1157Y-6.4244
X8.1157Y-6.4921
X8.1183Y-6.3429
X8.119Y-7.7277
X8.1196Y-7.8739
X8.1295Y-5.8461
X8.1413Y-6.2269
X8.1496Y-6.2795
X8.1716Y-7.7084
X8.1966Y-7.2439
X8.212Y-7.7136
X8.2174Y-7.901
X8.224Y-7.6781
X8.2382Y-5.689
X8.2382Y-5.9252
X8.248Y-6.6339
X8.2482Y-7.5962
X8.2576Y-7.4729
X8.2619Y-7.2632
X8.2643Y-7.9479
X8.2676Y-7.6839
X8.2826Y-7.6489
X8.3413Y-5.8449
X8.3563Y-6.1811
X8.3563Y-6.25
X8.3563Y-6.3189
X8.3563Y-6.378
X8.3595Y-6.1024
X8.3686Y-7.3209
X8.3756Y-7.9164
X8.4006Y-7.3659
X8.4146Y-7.9322
X8.4449Y-5.5512
X8.4626Y-7.3839
X8.4635Y-7.3039
X8.4686Y-7.3467
X8.4806Y-7.0319
X8.5039Y-6.1024
X8.5039Y-6.1811
X8.5039Y-6.3189
X8.5039Y-6.378
X8.5039Y-6.5551
X8.5421Y-6.7224
X8.5496Y-7.7669
X8.5531Y-6.2598
X8.5717Y-5.4528
X8.5726Y-7.8139
X8.5867Y-7.3463
X8.5867Y-7.384
X8.591Y-7.2254
X8.5912Y-7.3043
X8.5916Y-7.2639
X8.6Y-6.7831
X8.6066Y-7.4889
X8.6276Y-7.8169
X8.6417Y-6.063
X8.6516Y-6.378
X8.6634Y-6.4724
X8.6713Y-6.3189
X8.6713Y-6.8799
X8.6713Y-6.998
X8.6826Y-7.8079
X8.6916Y-7.5689
X8.6957Y-6.4228
X8.7106Y-5.572
X8.7116Y-7.1669
X8.7146Y-7.8419
X8.7425Y-6.0197
X8.7696Y-7.8509
X8.7876Y-7.8949
X8.8236Y-6.2567
X8.8256Y-6.3142
X8.8287Y-6.1811
X8.8374Y-5.7339
X8.8376Y-7.4729
X8.8406Y-7.2049
X8.8429Y-5.5713
X8.8583Y-5.8661
X8.8583Y-5.9449
X8.878Y-5.5413
X8.8878Y-5.6496
X8.8976Y-5.9055
X8.9026Y-6.4715
X8.9156Y-7.9119
X8.937Y-5.8661
X8.937Y-5.9449
X8.9665Y-6.1024
X8.9672Y-6.257
X8.9946Y-7.3779
X8.9956Y-7.2059
X9.0015Y-6.3409
X9.0016Y-7.5299
X9.0059Y-5.6496
X9.0196Y-7.9069
X9.0366Y-6.7862
X9.0602Y-6.5988
X9.065Y-5.6496
X9.0809Y-7.8779
X9.0816Y-7.8404
X9.083Y-7.9153
X9.0949Y-6.0209
X9.0986Y-7.2059
X9.0986Y-7.3491
X9.1Y-6.4244
X9.1Y-6.4921
X9.1025Y-6.3429
X9.1138Y-5.8461
X9.1255Y-6.2269
X9.129Y-7.8244
X9.1339Y-6.2795
X9.166Y-7.8305
X9.1966Y-7.7849
X9.2152Y-7.8382
X9.2224Y-5.689
X9.2224Y-5.9252
X9.2323Y-6.6339
X9.2346Y-7.7659
X9.3255Y-5.8449
X9.3406Y-6.1811
X9.3406Y-6.25
X9.3406Y-6.3189
X9.3406Y-6.378
X9.3438Y-6.1024
X9.3496Y-7.7589
X9.3706Y-7.2479
X9.378Y-7.0452
X9.4291Y-5.5512
X9.4882Y-6.1024
X9.4882Y-6.1811
X9.4882Y-6.3189
X9.4882Y-6.378
X9.4882Y-6.5551
X9.5264Y-6.7224
X9.5374Y-6.2598
X9.5559Y-5.4528
X9.5752Y-7.7215
X9.5843Y-6.7831
X9.626Y-6.063
X9.6358Y-6.378
X9.6476Y-6.4724
X9.6555Y-6.3189
X9.6555Y-6.8799
X9.6555Y-6.998
X9.6799Y-6.4228
X9.6949Y-5.572
X9.7268Y-6.0197
X9.7516Y-7.5529
X9.7716Y-7.8329
X9.7726Y-7.7399
X9.7736Y-7.7909
X9.8079Y-6.2567
X9.8086Y-7.3709
X9.8098Y-6.3142
X9.813Y-6.1811
X9.8206Y-7.4719
X9.8217Y-5.7339
X9.8272Y-5.5713
X9.8425Y-5.8661
X9.8425Y-5.9449
X9.8587Y-7.934
X9.8622Y-5.5413
X9.872Y-5.6496
X9.8819Y-5.9055
X9.8819Y-7.5787
X9.8868Y-6.4715
X9.8983Y-7.8931
X9.9166Y-7.2449
X9.9213Y-5.8661
X9.9213Y-5.9449
X9.9216Y-7.962
X9.9359Y-7.4397
X9.9508Y-6.1024
X9.9515Y-6.257
X9.9546Y-7.7689
X9.9576Y-7.3729
X9.9596Y-7.4919
X9.9626Y-7.2969
X9.9626Y-7.7109
X9.9858Y-6.3409
X9.9902Y-5.6496
X10.0084Y-7.5914
X10.0186Y-7.3529
X10.0209Y-6.7862
X10.0347Y-7.9698
X10.0406Y-7.4599
X10.0445Y-6.5988
X10.0492Y-5.6496
X10.0676Y-7.6859
X10.0716Y-7.9299
X10.0726Y-7.5279
X10.0791Y-6.0209
X10.0843Y-6.4244
X10.0843Y-6.4921
X10.0868Y-6.3429
X10.0976Y-7.4169
X10.098Y-5.8461
X10.0991Y-7.9579
X10.1098Y-6.2269
X10.1181Y-6.2795
X10.1232Y-7.6453
X10.1236Y-7.3589
X10.1441Y-7.828
X10.1836Y-7.7799
X10.2036Y-7.9509
X10.2067Y-5.689
X10.2067Y-5.9252
X10.2165Y-6.6339
X10.2186Y-7.3319
X10.2459Y-7.7687
X10.2836Y-7.2544
X10.2846Y-7.1844
X10.3098Y-5.8449
X10.3248Y-6.1811
X10.3248Y-6.25
X10.3248Y-6.3189
X10.3248Y-6.378
X10.328Y-6.1024
X10.3618Y-7.2339
X10.3622Y-7.0374
X10.4134Y-5.5512
X10.4526Y-7.2329
X10.4528Y-7.1063
X10.4724Y-6.1024
X10.4724Y-6.1811
X10.4724Y-6.3189
X10.4724Y-6.378
X10.4724Y-6.5551
X10.5106Y-6.7224
X10.5217Y-6.2598
X10.5402Y-5.4528
X10.5685Y-6.7831
X10.6102Y-6.063
X10.6201Y-6.378
X10.6319Y-6.4724
X10.6398Y-6.3189
X10.6398Y-6.8799
X10.6398Y-6.998
X10.6642Y-6.4228
X10.6791Y-5.572
X10.6926Y-7.6159
X10.711Y-6.0197
X10.7921Y-6.2567
X10.7941Y-6.3142
X10.7972Y-6.1811
X10.8059Y-5.7339
X10.8114Y-5.5713
X10.8268Y-5.8661
X10.8268Y-5.9449
X10.8465Y-5.5413
X10.8563Y-5.6496
X10.8661Y-5.9055
X10.8711Y-6.4715
X10.8796Y-7.5149
X10.9055Y-5.8661
X10.9055Y-5.9449
X10.9106Y-7.4679
X10.935Y-6.1024
X10.9357Y-6.257
X10.97Y-6.3409
X10.9744Y-5.6496
X11.0051Y-6.7862
X11.0287Y-6.5988
X11.0335Y-5.6496
X11.0634Y-6.0209
X11.0685Y-6.4244
X11.0685Y-6.4921
X11.071Y-6.3429
X11.0823Y-5.8461
X11.094Y-6.2269
X11.1024Y-6.2795
X11.1909Y-5.689
X11.1909Y-5.9252
X11.2008Y-6.6339
X11.294Y-5.8449
X11.3091Y-6.1811
X11.3091Y-6.25
X11.3091Y-6.3189
X11.3091Y-6.378
X11.3123Y-6.1024
X11.3436Y-7.2742
X11.3465Y-7.0374
X11.3976Y-5.5512
X11.4567Y-6.1024
X11.4567Y-6.1811
X11.4567Y-6.3189
X11.4567Y-6.378
X11.4567Y-6.5551
X11.4949Y-6.7224
X11.5059Y-6.2598
X11.5244Y-5.4528
X11.5528Y-6.7831
X11.5945Y-6.063
X11.6043Y-6.378
X11.6161Y-6.4724
X11.624Y-6.3189
X11.624Y-6.8799
X11.624Y-6.998
X11.6484Y-6.4228
X11.6634Y-5.572
X11.6953Y-6.0197
X11.7764Y-6.2567
X11.7783Y-6.3142
X11.7815Y-6.1811
X11.7902Y-5.7339
X11.7957Y-5.5713
X11.811Y-5.8661
X11.811Y-5.9449
X11.8146Y-7.9859
X11.8307Y-5.5413
X11.8406Y-5.6496
X11.8504Y-5.9055
X11.8553Y-6.4715
X11.8898Y-5.8661
X11.8898Y-5.9449
X11.9193Y-6.1024
X11.92Y-6.257
X11.9543Y-6.3409
X11.9587Y-5.6496
X11.9867Y-7.8015
X11.9894Y-6.7862
X12.013Y-6.5988
X12.0177Y-5.6496
X12.0186Y-7.7749
X12.0406Y-7.7099
X12.0476Y-6.0209
X12.0528Y-6.4244
X12.0528Y-6.4921
X12.0553Y-6.3429
X12.0665Y-5.8461
X12.0783Y-6.2269
X12.0866Y-6.2795
X12.0966Y-7.8709
X12.1176Y-7.6789
X12.1336Y-7.7719
X12.1496Y-7.6449
X12.1736Y-7.8139
X12.1752Y-5.689
X12.1752Y-5.9252
X12.1786Y-7.7209
X12.185Y-6.6339
X12.2246Y-8.0059
X12.2336Y-7.7139
X12.2543Y-7.6436
X12.2783Y-5.8449
X12.2933Y-6.1811
X12.2933Y-6.25
X12.2933Y-6.3189
X12.2933Y-6.378
X12.2965Y-6.1024
X12.3286Y-7.2742
X12.3327Y-7.0374
X12.3819Y-5.5512
X12.4226Y-7.7099
X12.4256Y-7.5959
X12.4409Y-6.1024
X12.4409Y-6.1811
X12.4409Y-6.3189
X12.4409Y-6.378
X12.4409Y-6.5551
X12.4791Y-6.7224
X12.4902Y-6.2598
X12.5087Y-5.4528
X12.537Y-6.7831
X12.5396Y-7.2899
X12.5396Y-7.4499
X12.5787Y-6.063
X12.5886Y-6.378
X12.6004Y-6.4724
X12.6083Y-6.3189
X12.6083Y-6.8799
X12.6083Y-6.998
X12.6327Y-6.4228
X12.6476Y-5.572
X12.6606Y-7.7759
X12.6746Y-7.3751
X12.6746Y-7.4499
X12.6756Y-7.7079
X12.6795Y-6.0197
X12.7606Y-6.2567
X12.7626Y-6.3142
X12.7657Y-6.1811
X12.7744Y-5.7339
X12.7746Y-7.7249
X12.7799Y-5.5713
X12.7953Y-5.8661
X12.7953Y-5.9449
X12.7966Y-7.3751
X12.815Y-5.5413
X12.8151Y-7.5849
X12.8248Y-5.6496
X12.8346Y-5.9055
X12.8396Y-6.4715
X12.874Y-5.8661
X12.874Y-5.9449
X12.9035Y-6.1024
X12.9042Y-6.257
X12.9086Y-7.5219
X12.9226Y-7.4109
X12.9386Y-6.3409
X12.9429Y-5.6496
X12.9736Y-6.7862
X12.9972Y-6.5988
X13.002Y-5.6496
X13.0096Y-7.5109
X13.0319Y-6.0209
X13.037Y-6.4244
X13.037Y-6.4921
X13.0396Y-6.3429
X13.0508Y-5.8461
X13.0516Y-7.5699
X13.0626Y-6.2269
X13.0709Y-6.2795
X13.1326Y-7.3589
X13.1594Y-5.689
X13.1594Y-5.9252
X13.1606Y-7.6049
X13.1693Y-6.6339
X13.1926Y-7.5499
X13.2166Y-7.6459
X13.2626Y-5.8449
X13.2776Y-6.1811
X13.2776Y-6.25
X13.2776Y-6.3189
X13.2776Y-6.378
X13.2808Y-6.1024
X13.2856Y-3.3485
X13.2924Y-7.5557
X13.2956Y-7.2869
X13.3139Y-3.5779
X13.315Y-7.0531
X13.3226Y-3.3929
X13.3236Y-3.4409
X13.3246Y-3.4829
X13.4006Y-3.5539
X13.4036Y-3.3549
X13.4046Y-5.5709
X13.4096Y-3.4219
X13.4156Y-3.5089
X13.4176Y-3.4629
T2
X8.8976Y-5.074
X9.2476Y-5.374
X6.9291Y-5.074
X7.2791Y-5.374
X10.8661Y-5.074
X11.2161Y-5.374
X3.9764Y-5.074
X4.3264Y-5.374
X12.8346Y-5.074
X13.1846Y-5.374
X5.9449Y-5.074
X6.2949Y-5.374
X7.9134Y-5.074
X8.2634Y-5.374
X11.8504Y-5.074
X12.2004Y-5.374
X9.8819Y-5.074
X10.2319Y-5.374
X4.9606Y-5.074
X5.3106Y-5.374
T4
X8.0118Y-5.5512
X8.1118Y-5.5512
X8.2118Y-5.5512
X8.3118Y-5.5512
X11.8504Y-3.7795
X11.8504Y-3.8795
X6.0433Y-5.5512
X6.1433Y-5.5512
X6.2433Y-5.5512
X6.3433Y-5.5512
X7.9134Y-3.7795
X7.9134Y-3.8795
X10.9646Y-5.5512
X11.0646Y-5.5512
X11.1646Y-5.5512
X11.2646Y-5.5512
X5.9449Y-3.7795
X5.9449Y-3.8795
X11.9488Y-5.5512
X12.0488Y-5.5512
X12.1488Y-5.5512
X12.2488Y-5.5512
X3.7598Y-7.4016
X3.7598Y-7.5016
X3.7598Y-7.6016
X3.7598Y-7.7016
X8.9961Y-5.5512
X9.0961Y-5.5512
X9.1961Y-5.5512
X9.2961Y-5.5512
X10.8661Y-3.7795
X10.8661Y-3.8795
X12.9331Y-5.5512
X13.0331Y-5.5512
X13.1331Y-5.5512
X13.2331Y-5.5512
X10.374Y-7.4165
X10.374Y-7.5165
X10.374Y-7.6165
X10.374Y-7.7165
X7.0276Y-5.5512
X7.1276Y-5.5512
X7.2276Y-5.5512
X7.3276Y-5.5512
X8.8976Y-3.7795
X8.8976Y-3.8795
X3.9961Y-7.4016
X3.9961Y-7.5016
X3.9961Y-7.6016
X3.9961Y-7.7016
X3.5236Y-7.4016
X3.5236Y-7.5016
X3.5236Y-7.6016
X3.5236Y-7.7016
X5.0591Y-5.5512
X5.1591Y-5.5512
X5.2591Y-5.5512
X5.3591Y-5.5512
X6.9291Y-3.7795
X6.9291Y-3.8795
X4.0748Y-5.5512
X4.1748Y-5.5512
X4.2748Y-5.5512
X4.3748Y-5.5512
X9.9803Y-5.5512
X10.0803Y-5.5512
X10.1803Y-5.5512
X10.2803Y-5.5512
X4.9606Y-3.7795
X4.9606Y-3.8795
X3.9764Y-3.7795
X3.9764Y-3.8795
X9.8819Y-3.7795
X9.8819Y-3.8795
X12.8346Y-3.7795
X12.8346Y-3.8795
T5
X4.2323Y-7.4016
X4.2323Y-7.5016
X4.2323Y-7.6016
X4.3323Y-7.4016
X4.3323Y-7.5016
X4.3323Y-7.6016
X9.1929Y-6.7882
X9.1929Y-6.8882
X9.1929Y-6.9882
X9.2929Y-6.7882
X9.2929Y-6.8882
X9.2929Y-6.9882
X11.1614Y-6.7882
X11.1614Y-6.8882
X11.1614Y-6.9882
X11.2614Y-6.7882
X11.2614Y-6.8882
X11.2614Y-6.9882
X7.2244Y-6.7882
X7.2244Y-6.8882
X7.2244Y-6.9882
X7.3244Y-6.7882
X7.3244Y-6.8882
X7.3244Y-6.9882
X5.2559Y-6.7882
X5.2559Y-6.8882
X5.2559Y-6.9882
X5.3559Y-6.7882
X5.3559Y-6.8882
X5.3559Y-6.9882
X10.1772Y-6.7882
X10.1772Y-6.8882
X10.1772Y-6.9882
X10.2772Y-6.7882
X10.2772Y-6.8882
X10.2772Y-6.9882
X13.1299Y-6.7882
X13.1299Y-6.8882
X13.1299Y-6.9882
X13.2299Y-6.7882
X13.2299Y-6.8882
X13.2299Y-6.9882
X8.2087Y-6.7882
X8.2087Y-6.8882
X8.2087Y-6.9882
X8.3087Y-6.7882
X8.3087Y-6.8882
X8.3087Y-6.9882
X12.1457Y-6.7882
X12.1457Y-6.8882
X12.1457Y-6.9882
X12.2457Y-6.7882
X12.2457Y-6.8882
X12.2457Y-6.9882
X6.2402Y-6.7882
X6.2402Y-6.8882
X6.2402Y-6.9882
X6.3402Y-6.7882
X6.3402Y-6.8882
X6.3402Y-6.9882
X6.8276Y-7.8543
X6.8276Y-7.9543
X6.9276Y-7.8543
X6.9276Y-7.9543
X7.0276Y-7.8543
X7.0276Y-7.9543
X4.2717Y-6.7882
X4.2717Y-6.8882
X4.2717Y-6.9882
X4.3717Y-6.7882
X4.3717Y-6.8882
X4.3717Y-6.9882
T6
X6.2008Y-7.315
X6.2008Y-7.415
X6.2008Y-7.515
X6.2008Y-7.615
X6.2008Y-7.715
X6.2008Y-7.815
T3
G00X7.8258Y-7.8406
M15
G01X7.8258Y-7.8406
M16
G05
G00X8.001Y-7.8406
M15
G01X8.001Y-7.8406
M16
G05
T5
G00X8.4547Y-7.5197
M15
G01X8.3563Y-7.5197
M16
G05
G00X8.4449Y-7.7559
M15
G01X8.3661Y-7.7559
M16
G05
G00X8.5906Y-7.5984
M15
G01X8.5906Y-7.6772
M16
G05
T7
G00X7.749Y-7.9587
M15
G01X7.749Y-7.9587
M16
G05
G00X8.0778Y-7.9587
M15
G01X8.0778Y-7.9587
M16
G05
T0
M30
