%TF.GenerationSoftware,KiCad,Pcbnew,(5.1.5-0-10_14)*%
%TF.CreationDate,2021-01-27T10:41:07-07:00*%
%TF.ProjectId,NFCPower10,4e464350-6f77-4657-9231-302e6b696361,2*%
%TF.SameCoordinates,Original*%
%TF.FileFunction,Legend,Bot*%
%TF.FilePolarity,Positive*%
%FSLAX46Y46*%
G04 Gerber Fmt 4.6, Leading zero omitted, Abs format (unit mm)*
G04 Created by KiCad (PCBNEW (5.1.5-0-10_14)) date 2021-01-27 10:41:07*
%MOMM*%
%LPD*%
G04 APERTURE LIST*
%ADD10C,0.150000*%
%ADD11C,0.250000*%
G04 APERTURE END LIST*
D10*
%TO.C,UED2*%
X88825000Y-90450000D02*
X88175000Y-90450000D01*
X88825000Y-85550000D02*
X88175000Y-85550000D01*
D11*
X90525000Y-86125000D02*
G75*
G03X90525000Y-86125000I-125000J0D01*
G01*
D10*
%TO.C,UED1*%
X338825000Y-90450000D02*
X338175000Y-90450000D01*
X338825000Y-85550000D02*
X338175000Y-85550000D01*
D11*
X340525000Y-86125000D02*
G75*
G03X340525000Y-86125000I-125000J0D01*
G01*
D10*
%TO.C,D78*%
X87650000Y-85875000D02*
X89350000Y-85875000D01*
X87650000Y-84125000D02*
X89350000Y-84125000D01*
D11*
X86900000Y-85000000D02*
G75*
G03X86900000Y-85000000I-125000J0D01*
G01*
D10*
%TO.C,D77*%
X337650000Y-85875000D02*
X339350000Y-85875000D01*
X337650000Y-84125000D02*
X339350000Y-84125000D01*
D11*
X336900000Y-85000000D02*
G75*
G03X336900000Y-85000000I-125000J0D01*
G01*
%TO.C,Y31*%
D10*
X96452380Y-138976190D02*
X96452380Y-139452380D01*
X96785714Y-138452380D02*
X96452380Y-138976190D01*
X96119047Y-138452380D01*
X95880952Y-138452380D02*
X95261904Y-138452380D01*
X95595238Y-138833333D01*
X95452380Y-138833333D01*
X95357142Y-138880952D01*
X95309523Y-138928571D01*
X95261904Y-139023809D01*
X95261904Y-139261904D01*
X95309523Y-139357142D01*
X95357142Y-139404761D01*
X95452380Y-139452380D01*
X95738095Y-139452380D01*
X95833333Y-139404761D01*
X95880952Y-139357142D01*
X94309523Y-139452380D02*
X94880952Y-139452380D01*
X94595238Y-139452380D02*
X94595238Y-138452380D01*
X94690476Y-138595238D01*
X94785714Y-138690476D01*
X94880952Y-138738095D01*
%TO.C,Y28*%
X121452380Y-138976190D02*
X121452380Y-139452380D01*
X121785714Y-138452380D02*
X121452380Y-138976190D01*
X121119047Y-138452380D01*
X120833333Y-138547619D02*
X120785714Y-138500000D01*
X120690476Y-138452380D01*
X120452380Y-138452380D01*
X120357142Y-138500000D01*
X120309523Y-138547619D01*
X120261904Y-138642857D01*
X120261904Y-138738095D01*
X120309523Y-138880952D01*
X120880952Y-139452380D01*
X120261904Y-139452380D01*
X119690476Y-138880952D02*
X119785714Y-138833333D01*
X119833333Y-138785714D01*
X119880952Y-138690476D01*
X119880952Y-138642857D01*
X119833333Y-138547619D01*
X119785714Y-138500000D01*
X119690476Y-138452380D01*
X119500000Y-138452380D01*
X119404761Y-138500000D01*
X119357142Y-138547619D01*
X119309523Y-138642857D01*
X119309523Y-138690476D01*
X119357142Y-138785714D01*
X119404761Y-138833333D01*
X119500000Y-138880952D01*
X119690476Y-138880952D01*
X119785714Y-138928571D01*
X119833333Y-138976190D01*
X119880952Y-139071428D01*
X119880952Y-139261904D01*
X119833333Y-139357142D01*
X119785714Y-139404761D01*
X119690476Y-139452380D01*
X119500000Y-139452380D01*
X119404761Y-139404761D01*
X119357142Y-139357142D01*
X119309523Y-139261904D01*
X119309523Y-139071428D01*
X119357142Y-138976190D01*
X119404761Y-138928571D01*
X119500000Y-138880952D01*
%TO.C,Y25*%
X146452380Y-138976190D02*
X146452380Y-139452380D01*
X146785714Y-138452380D02*
X146452380Y-138976190D01*
X146119047Y-138452380D01*
X145833333Y-138547619D02*
X145785714Y-138500000D01*
X145690476Y-138452380D01*
X145452380Y-138452380D01*
X145357142Y-138500000D01*
X145309523Y-138547619D01*
X145261904Y-138642857D01*
X145261904Y-138738095D01*
X145309523Y-138880952D01*
X145880952Y-139452380D01*
X145261904Y-139452380D01*
X144357142Y-138452380D02*
X144833333Y-138452380D01*
X144880952Y-138928571D01*
X144833333Y-138880952D01*
X144738095Y-138833333D01*
X144500000Y-138833333D01*
X144404761Y-138880952D01*
X144357142Y-138928571D01*
X144309523Y-139023809D01*
X144309523Y-139261904D01*
X144357142Y-139357142D01*
X144404761Y-139404761D01*
X144500000Y-139452380D01*
X144738095Y-139452380D01*
X144833333Y-139404761D01*
X144880952Y-139357142D01*
%TO.C,Y22*%
X171452380Y-138976190D02*
X171452380Y-139452380D01*
X171785714Y-138452380D02*
X171452380Y-138976190D01*
X171119047Y-138452380D01*
X170833333Y-138547619D02*
X170785714Y-138500000D01*
X170690476Y-138452380D01*
X170452380Y-138452380D01*
X170357142Y-138500000D01*
X170309523Y-138547619D01*
X170261904Y-138642857D01*
X170261904Y-138738095D01*
X170309523Y-138880952D01*
X170880952Y-139452380D01*
X170261904Y-139452380D01*
X169880952Y-138547619D02*
X169833333Y-138500000D01*
X169738095Y-138452380D01*
X169500000Y-138452380D01*
X169404761Y-138500000D01*
X169357142Y-138547619D01*
X169309523Y-138642857D01*
X169309523Y-138738095D01*
X169357142Y-138880952D01*
X169928571Y-139452380D01*
X169309523Y-139452380D01*
%TO.C,Y19*%
X196452380Y-138976190D02*
X196452380Y-139452380D01*
X196785714Y-138452380D02*
X196452380Y-138976190D01*
X196119047Y-138452380D01*
X195261904Y-139452380D02*
X195833333Y-139452380D01*
X195547619Y-139452380D02*
X195547619Y-138452380D01*
X195642857Y-138595238D01*
X195738095Y-138690476D01*
X195833333Y-138738095D01*
X194785714Y-139452380D02*
X194595238Y-139452380D01*
X194500000Y-139404761D01*
X194452380Y-139357142D01*
X194357142Y-139214285D01*
X194309523Y-139023809D01*
X194309523Y-138642857D01*
X194357142Y-138547619D01*
X194404761Y-138500000D01*
X194500000Y-138452380D01*
X194690476Y-138452380D01*
X194785714Y-138500000D01*
X194833333Y-138547619D01*
X194880952Y-138642857D01*
X194880952Y-138880952D01*
X194833333Y-138976190D01*
X194785714Y-139023809D01*
X194690476Y-139071428D01*
X194500000Y-139071428D01*
X194404761Y-139023809D01*
X194357142Y-138976190D01*
X194309523Y-138880952D01*
%TO.C,Y16*%
X221452380Y-138976190D02*
X221452380Y-139452380D01*
X221785714Y-138452380D02*
X221452380Y-138976190D01*
X221119047Y-138452380D01*
X220261904Y-139452380D02*
X220833333Y-139452380D01*
X220547619Y-139452380D02*
X220547619Y-138452380D01*
X220642857Y-138595238D01*
X220738095Y-138690476D01*
X220833333Y-138738095D01*
X219404761Y-138452380D02*
X219595238Y-138452380D01*
X219690476Y-138500000D01*
X219738095Y-138547619D01*
X219833333Y-138690476D01*
X219880952Y-138880952D01*
X219880952Y-139261904D01*
X219833333Y-139357142D01*
X219785714Y-139404761D01*
X219690476Y-139452380D01*
X219500000Y-139452380D01*
X219404761Y-139404761D01*
X219357142Y-139357142D01*
X219309523Y-139261904D01*
X219309523Y-139023809D01*
X219357142Y-138928571D01*
X219404761Y-138880952D01*
X219500000Y-138833333D01*
X219690476Y-138833333D01*
X219785714Y-138880952D01*
X219833333Y-138928571D01*
X219880952Y-139023809D01*
%TO.C,Y13*%
X246452380Y-138976190D02*
X246452380Y-139452380D01*
X246785714Y-138452380D02*
X246452380Y-138976190D01*
X246119047Y-138452380D01*
X245261904Y-139452380D02*
X245833333Y-139452380D01*
X245547619Y-139452380D02*
X245547619Y-138452380D01*
X245642857Y-138595238D01*
X245738095Y-138690476D01*
X245833333Y-138738095D01*
X244928571Y-138452380D02*
X244309523Y-138452380D01*
X244642857Y-138833333D01*
X244500000Y-138833333D01*
X244404761Y-138880952D01*
X244357142Y-138928571D01*
X244309523Y-139023809D01*
X244309523Y-139261904D01*
X244357142Y-139357142D01*
X244404761Y-139404761D01*
X244500000Y-139452380D01*
X244785714Y-139452380D01*
X244880952Y-139404761D01*
X244928571Y-139357142D01*
%TO.C,Y10*%
X271452380Y-138976190D02*
X271452380Y-139452380D01*
X271785714Y-138452380D02*
X271452380Y-138976190D01*
X271119047Y-138452380D01*
X270261904Y-139452380D02*
X270833333Y-139452380D01*
X270547619Y-139452380D02*
X270547619Y-138452380D01*
X270642857Y-138595238D01*
X270738095Y-138690476D01*
X270833333Y-138738095D01*
X269642857Y-138452380D02*
X269547619Y-138452380D01*
X269452380Y-138500000D01*
X269404761Y-138547619D01*
X269357142Y-138642857D01*
X269309523Y-138833333D01*
X269309523Y-139071428D01*
X269357142Y-139261904D01*
X269404761Y-139357142D01*
X269452380Y-139404761D01*
X269547619Y-139452380D01*
X269642857Y-139452380D01*
X269738095Y-139404761D01*
X269785714Y-139357142D01*
X269833333Y-139261904D01*
X269880952Y-139071428D01*
X269880952Y-138833333D01*
X269833333Y-138642857D01*
X269785714Y-138547619D01*
X269738095Y-138500000D01*
X269642857Y-138452380D01*
%TO.C,Y7*%
X295976190Y-138976190D02*
X295976190Y-139452380D01*
X296309523Y-138452380D02*
X295976190Y-138976190D01*
X295642857Y-138452380D01*
X295404761Y-138452380D02*
X294738095Y-138452380D01*
X295166666Y-139452380D01*
%TO.C,Y5*%
X320976190Y-138976190D02*
X320976190Y-139452380D01*
X321309523Y-138452380D02*
X320976190Y-138976190D01*
X320642857Y-138452380D01*
X319833333Y-138452380D02*
X320309523Y-138452380D01*
X320357142Y-138928571D01*
X320309523Y-138880952D01*
X320214285Y-138833333D01*
X319976190Y-138833333D01*
X319880952Y-138880952D01*
X319833333Y-138928571D01*
X319785714Y-139023809D01*
X319785714Y-139261904D01*
X319833333Y-139357142D01*
X319880952Y-139404761D01*
X319976190Y-139452380D01*
X320214285Y-139452380D01*
X320309523Y-139404761D01*
X320357142Y-139357142D01*
%TO.C,UED2*%
X86063804Y-87764780D02*
X86063804Y-88574304D01*
X86016185Y-88669542D01*
X85968566Y-88717161D01*
X85873328Y-88764780D01*
X85682852Y-88764780D01*
X85587614Y-88717161D01*
X85539995Y-88669542D01*
X85492376Y-88574304D01*
X85492376Y-87764780D01*
X85016185Y-88240971D02*
X84682852Y-88240971D01*
X84539995Y-88764780D02*
X85016185Y-88764780D01*
X85016185Y-87764780D01*
X84539995Y-87764780D01*
X84111423Y-88764780D02*
X84111423Y-87764780D01*
X83873328Y-87764780D01*
X83730471Y-87812400D01*
X83635233Y-87907638D01*
X83587614Y-88002876D01*
X83539995Y-88193352D01*
X83539995Y-88336209D01*
X83587614Y-88526685D01*
X83635233Y-88621923D01*
X83730471Y-88717161D01*
X83873328Y-88764780D01*
X84111423Y-88764780D01*
X83159042Y-87860019D02*
X83111423Y-87812400D01*
X83016185Y-87764780D01*
X82778090Y-87764780D01*
X82682852Y-87812400D01*
X82635233Y-87860019D01*
X82587614Y-87955257D01*
X82587614Y-88050495D01*
X82635233Y-88193352D01*
X83206661Y-88764780D01*
X82587614Y-88764780D01*
%TO.C,UED1*%
X344889804Y-88221980D02*
X344889804Y-89031504D01*
X344842185Y-89126742D01*
X344794566Y-89174361D01*
X344699328Y-89221980D01*
X344508852Y-89221980D01*
X344413614Y-89174361D01*
X344365995Y-89126742D01*
X344318376Y-89031504D01*
X344318376Y-88221980D01*
X343842185Y-88698171D02*
X343508852Y-88698171D01*
X343365995Y-89221980D02*
X343842185Y-89221980D01*
X343842185Y-88221980D01*
X343365995Y-88221980D01*
X342937423Y-89221980D02*
X342937423Y-88221980D01*
X342699328Y-88221980D01*
X342556471Y-88269600D01*
X342461233Y-88364838D01*
X342413614Y-88460076D01*
X342365995Y-88650552D01*
X342365995Y-88793409D01*
X342413614Y-88983885D01*
X342461233Y-89079123D01*
X342556471Y-89174361D01*
X342699328Y-89221980D01*
X342937423Y-89221980D01*
X341413614Y-89221980D02*
X341985042Y-89221980D01*
X341699328Y-89221980D02*
X341699328Y-88221980D01*
X341794566Y-88364838D01*
X341889804Y-88460076D01*
X341985042Y-88507695D01*
%TO.C,D78*%
X85531366Y-85792980D02*
X85531366Y-84792980D01*
X85293271Y-84792980D01*
X85150414Y-84840600D01*
X85055176Y-84935838D01*
X85007557Y-85031076D01*
X84959938Y-85221552D01*
X84959938Y-85364409D01*
X85007557Y-85554885D01*
X85055176Y-85650123D01*
X85150414Y-85745361D01*
X85293271Y-85792980D01*
X85531366Y-85792980D01*
X84626604Y-84792980D02*
X83959938Y-84792980D01*
X84388509Y-85792980D01*
X83436128Y-85221552D02*
X83531366Y-85173933D01*
X83578985Y-85126314D01*
X83626604Y-85031076D01*
X83626604Y-84983457D01*
X83578985Y-84888219D01*
X83531366Y-84840600D01*
X83436128Y-84792980D01*
X83245652Y-84792980D01*
X83150414Y-84840600D01*
X83102795Y-84888219D01*
X83055176Y-84983457D01*
X83055176Y-85031076D01*
X83102795Y-85126314D01*
X83150414Y-85173933D01*
X83245652Y-85221552D01*
X83436128Y-85221552D01*
X83531366Y-85269171D01*
X83578985Y-85316790D01*
X83626604Y-85412028D01*
X83626604Y-85602504D01*
X83578985Y-85697742D01*
X83531366Y-85745361D01*
X83436128Y-85792980D01*
X83245652Y-85792980D01*
X83150414Y-85745361D01*
X83102795Y-85697742D01*
X83055176Y-85602504D01*
X83055176Y-85412028D01*
X83102795Y-85316790D01*
X83150414Y-85269171D01*
X83245652Y-85221552D01*
%TO.C,D77*%
X343950966Y-85742180D02*
X343950966Y-84742180D01*
X343712871Y-84742180D01*
X343570014Y-84789800D01*
X343474776Y-84885038D01*
X343427157Y-84980276D01*
X343379538Y-85170752D01*
X343379538Y-85313609D01*
X343427157Y-85504085D01*
X343474776Y-85599323D01*
X343570014Y-85694561D01*
X343712871Y-85742180D01*
X343950966Y-85742180D01*
X343046204Y-84742180D02*
X342379538Y-84742180D01*
X342808109Y-85742180D01*
X342093823Y-84742180D02*
X341427157Y-84742180D01*
X341855728Y-85742180D01*
%TD*%
M02*
